<?xml version="1.0" encoding="UTF-8"?>
<svg id="Layer_2" data-name="Layer 2" xmlns="http://www.w3.org/2000/svg" viewBox="0 0 43.3 42.55">
  <defs>
    <style>
      .cls-1 {
        fill: #fff;
      }
    </style>
  </defs>
  <g id="Layer_1-2" data-name="Layer 1">
    <path class="cls-1" d="M15.95,42.55l-1.05-6.7c-.43-.13-.93-.36-1.48-.67-.55-.32-1.01-.62-1.38-.92l-6.25,2.9L0,26.9l5.7-4.15c-.03-.2-.06-.44-.07-.73-.02-.28-.03-.53-.02-.73,0-.2,0-.44,.03-.73,.02-.28,.04-.52,.08-.73L0,15.65,5.8,5.5l6.35,2.85c.33-.27,.77-.55,1.3-.85s1.02-.52,1.45-.65L15.95,0h11.4l1.05,6.8c.43,.17,.92,.39,1.48,.68,.55,.28,1.01,.57,1.38,.88l6.3-2.85,5.75,10.15-5.75,4.1c.03,.23,.07,.49,.1,.77s.05,.54,.05,.77-.02,.48-.05,.75-.07,.52-.1,.75l5.75,4.1-5.8,10.25-6.3-2.9c-.37,.3-.81,.61-1.33,.92-.52,.32-1.01,.54-1.48,.67l-1.05,6.7H15.95Zm5.6-14.75c1.8,0,3.33-.63,4.6-1.9s1.9-2.8,1.9-4.6-.63-3.33-1.9-4.6-2.8-1.9-4.6-1.9-3.33,.63-4.6,1.9-1.9,2.8-1.9,4.6,.63,3.33,1.9,4.6,2.8,1.9,4.6,1.9Z"/>
  </g>
</svg>